<svg xmlns="http://www.w3.org/2000/svg" version="1.1" xmlns:xlink="http://www.w3.org/1999/xlink" xmlns:svgjs="http://svgjs.dev/svgjs" width="1500" height="1500" viewBox="0 0 1500 1500"><rect width="1500" height="1500" fill="#000000"></rect><g transform="matrix(0.6666666666666666,0,0,0.6666666666666666,249.39393939393938,438.5856950067477)"><svg viewBox="0 0 396 247" data-background-color="#ffffff" preserveAspectRatio="xMidYMid meet" height="935" width="1500" xmlns="http://www.w3.org/2000/svg" xmlns:xlink="http://www.w3.org/1999/xlink"><g id="tight-bounds" transform="matrix(1,0,0,1,0.2400000000000091,-0.09999999999999432)"><svg viewBox="0 0 395.52 247.2" height="247.2" width="395.52"><g><svg></svg></g><g><svg viewBox="0 0 395.52 247.2" height="247.2" width="395.52"><g transform="matrix(1,0,0,1,75.54432,110.3979446237288)"><svg viewBox="0 0 244.43135999999998 26.404110752542373" height="26.404110752542373" width="244.43135999999998"><g><svg viewBox="0 0 244.43135999999998 26.404110752542373" height="26.404110752542373" width="244.43135999999998"><g><svg viewBox="0 0 244.43135999999998 26.404110752542373" height="26.404110752542373" width="244.43135999999998"><g><svg viewBox="0 0 244.43135999999998 26.404110752542373" height="26.404110752542373" width="244.43135999999998"><g id="textblocktransform"><svg viewBox="0 0 244.43135999999998 26.404110752542373" height="26.404110752542373" width="244.43135999999998" id="textblock"><g><svg viewBox="0 0 244.43135999999998 26.404110752542373" height="26.404110752542373" width="244.43135999999998"><g transform="matrix(1,0,0,1,0,0)"><svg width="244.43135999999998" viewBox="3.25 -35.01 324.07 35.01" height="26.404110752542373" data-palette-color="#2a2c35"><path d="M10.25-35.01L10.25 0 3.25 0 3.25-35.01 10.25-35.01ZM44.75-35.01L44.75 0 37.25 0 23.75-23.05 23.75 0 16.75 0 16.75-35.01 24.24-35.01 37.74-11.94 37.74-35.01 44.75-35.01ZM65.94-28L65.94 0 58.95 0 58.95-28 48.43-28 48.43-35.01 76.44-35.01 76.44-28 65.94-28ZM104.14-7.01L104.14 0 80.14 0 80.14-35.01 104.14-35.01 104.14-28 87.15-28 87.15-21 98.65-21 98.65-13.99 87.15-13.99 87.15-7.01 104.14-7.01ZM133.56-7.01L133.56 0 109.05 0 109.05-35.01 116.05-35.01 116.05-7.01 133.56-7.01ZM161.71-7.01L161.71 0 137.19 0 137.19-35.01 144.2-35.01 144.2-7.01 161.71-7.01ZM172.35-35.01L172.35 0 165.34 0 165.34-35.01 172.35-35.01ZM176.79-24.51L176.79-24.51Q176.79-26.68 177.62-28.59 178.45-30.49 179.88-31.92 181.31-33.35 183.21-34.18 185.11-35.01 187.29-35.01L187.29-35.01 203.35-35.01 203.35-28 187.29-28Q186.55-28 185.92-27.73 185.29-27.47 184.81-26.99 184.33-26.51 184.06-25.88 183.8-25.24 183.8-24.51L183.8-24.51Q183.8-23.78 184.06-23.13 184.33-22.49 184.81-22.01 185.29-21.53 185.92-21.26 186.55-21 187.29-21L187.29-21 194.29-21Q196.47-21 198.38-20.18 200.3-19.36 201.73-17.93 203.16-16.5 203.97-14.59 204.79-12.67 204.79-10.5L204.79-10.5Q204.79-8.33 203.97-6.42 203.16-4.52 201.73-3.09 200.3-1.66 198.38-0.83 196.47 0 194.29 0L194.29 0 178.74 0 178.74-7.01 194.29-7.01Q195.03-7.01 195.66-7.28 196.3-7.54 196.77-8.02 197.25-8.5 197.52-9.13 197.79-9.77 197.79-10.5L197.79-10.5Q197.79-11.23 197.52-11.87 197.25-12.5 196.77-12.98 196.3-13.45 195.66-13.72 195.03-13.99 194.29-13.99L194.29-13.99 187.29-13.99Q185.11-13.99 183.21-14.82 181.31-15.65 179.88-17.08 178.45-18.51 177.62-20.42 176.79-22.34 176.79-24.51ZM233.38-7.01L233.38 0 209.38 0 209.38-35.01 233.38-35.01 233.38-28 216.39-28 216.39-21 227.89-21 227.89-13.99 216.39-13.99 216.39-7.01 233.38-7.01ZM266.29-35.01L266.29 0 258.79 0 245.29-23.05 245.29 0 238.28 0 238.28-35.01 245.78-35.01 259.28-11.94 259.28-35.01 266.29-35.01ZM270.73-24.51L270.73-24.51Q270.73-26.68 271.56-28.59 272.39-30.49 273.82-31.92 275.24-33.35 277.15-34.18 279.05-35.01 281.23-35.01L281.23-35.01 297.29-35.01 297.29-28 281.23-28Q280.49-28 279.86-27.73 279.22-27.47 278.75-26.99 278.27-26.51 278-25.88 277.73-25.24 277.73-24.51L277.73-24.51Q277.73-23.78 278-23.13 278.27-22.49 278.75-22.01 279.22-21.53 279.86-21.26 280.49-21 281.23-21L281.23-21 288.23-21Q290.4-21 292.32-20.18 294.24-19.36 295.67-17.93 297.09-16.5 297.91-14.59 298.73-12.67 298.73-10.5L298.73-10.5Q298.73-8.33 297.91-6.42 297.09-4.52 295.67-3.09 294.24-1.66 292.32-0.83 290.4 0 288.23 0L288.23 0 272.68 0 272.68-7.01 288.23-7.01Q288.96-7.01 289.6-7.28 290.23-7.54 290.71-8.02 291.19-8.5 291.45-9.13 291.72-9.77 291.72-10.5L291.72-10.5Q291.72-11.23 291.45-11.87 291.19-12.5 290.71-12.98 290.23-13.45 289.6-13.72 288.96-13.99 288.23-13.99L288.23-13.99 281.23-13.99Q279.05-13.99 277.15-14.82 275.24-15.65 273.82-17.08 272.39-18.51 271.56-20.42 270.73-22.34 270.73-24.51ZM327.32-7.01L327.32 0 303.32 0 303.32-35.01 327.32-35.01 327.32-28 310.32-28 310.32-21 321.82-21 321.82-13.99 310.32-13.99 310.32-7.01 327.32-7.01Z" opacity="1" transform="matrix(1,0,0,1,0,0)" fill="#ffffff" class="wordmark-text-0" data-fill-palette-color="primary" id="text-0"></path></svg></g></svg></g></svg></g></svg></g></svg></g></svg></g></svg></g><path d="M172.887 104.398L172.887 39.616 4.919 39.616 4.919 207.584 172.887 207.584 172.887 142.802 170.506 142.802 170.506 205.203 7.3 205.203 7.3 41.997 170.506 41.997 170.506 104.398Z" fill="#ffffff" stroke="transparent" data-fill-palette-color="tertiary"></path></svg></g><defs></defs></svg><rect width="395.52" height="247.2" fill="none" stroke="none" visibility="hidden"></rect></g></svg></g></svg>